<?xml version="1.0" encoding="utf-8"?>
<!-- Generator: Adobe Illustrator 22.0.0, SVG Export Plug-In . SVG Version: 6.00 Build 0)  -->
<svg version="1.1" id="Layer_1" xmlns="http://www.w3.org/2000/svg" xmlns:xlink="http://www.w3.org/1999/xlink" x="0px" y="0px"
	 viewBox="0 0 28 28" style="enable-background:new 0 0 28 28;" width="28" height="28" xml:space="preserve">
<style type="text/css">
	.st0{fill:#82919B;}
	.st1{fill:#35414C;}
</style>
<g>
	<circle class="st0" cx="14" cy="14" r="14"/>
	<g>
		<path class="st1" d="M14,7.6c2.1,0,2.3,0,3.1,0c0.8,0,1.2,0.2,1.4,0.3c0.4,0.1,0.6,0.3,0.9,0.6c0.3,0.3,0.4,0.5,0.6,0.9
			c0.1,0.3,0.2,0.7,0.3,1.4c0,0.8,0,1.1,0,3.1s0,2.3,0,3.1c0,0.8-0.2,1.2-0.3,1.4c-0.1,0.4-0.3,0.6-0.6,0.9
			c-0.3,0.3-0.5,0.4-0.9,0.6c-0.3,0.1-0.7,0.2-1.4,0.3c-0.8,0-1.1,0-3.1,0s-2.3,0-3.1,0c-0.8,0-1.2-0.2-1.4-0.3
			c-0.4-0.1-0.6-0.3-0.9-0.6c-0.3-0.3-0.4-0.5-0.6-0.9c-0.1-0.3-0.2-0.7-0.3-1.4c0-0.8,0-1.1,0-3.1s0-2.3,0-3.1
			c0-0.8,0.2-1.2,0.3-1.4c0.1-0.4,0.3-0.6,0.6-0.9C8.8,8.3,9,8.1,9.4,7.9c0.3-0.1,0.7-0.2,1.4-0.3C11.7,7.6,11.9,7.6,14,7.6 M14,6.2
			c-2.1,0-2.4,0-3.2,0c-0.8,0-1.4,0.2-1.9,0.4C8.4,6.8,8,7.1,7.5,7.5C7.1,8,6.8,8.4,6.6,8.9C6.4,9.4,6.3,10,6.3,10.8
			c0,0.8,0,1.1,0,3.2c0,2.1,0,2.4,0,3.2c0,0.8,0.2,1.4,0.4,1.9c0.2,0.5,0.5,0.9,0.9,1.4c0.4,0.4,0.9,0.7,1.4,0.9
			c0.5,0.2,1.1,0.3,1.9,0.4c0.8,0,1.1,0,3.2,0s2.4,0,3.2,0c0.8,0,1.4-0.2,1.9-0.4c0.5-0.2,0.9-0.5,1.4-0.9c0.4-0.4,0.7-0.9,0.9-1.4
			c0.2-0.5,0.3-1.1,0.4-1.9c0-0.8,0-1.1,0-3.2s0-2.4,0-3.2c0-0.8-0.2-1.4-0.4-1.9c-0.2-0.5-0.5-0.9-0.9-1.4
			c-0.4-0.4-0.9-0.7-1.4-0.9c-0.5-0.2-1.1-0.3-1.9-0.4C16.4,6.2,16.1,6.2,14,6.2L14,6.2z"/>
		<path class="st1" d="M14,10c-2.2,0-4,1.8-4,4c0,2.2,1.8,4,4,4s4-1.8,4-4C18,11.8,16.2,10,14,10z M14,16.6c-1.4,0-2.6-1.2-2.6-2.6
			c0-1.4,1.2-2.6,2.6-2.6c1.4,0,2.6,1.2,2.6,2.6C16.6,15.4,15.4,16.6,14,16.6z"/>
		<circle class="st1" cx="18.2" cy="9.9" r="0.9"/>
	</g>
</g>
</svg>
