<?xml version="1.0" encoding="utf-8"?>
<!-- Generator: Adobe Illustrator 19.2.0, SVG Export Plug-In . SVG Version: 6.00 Build 0)  -->
<svg version="1.1" id="Layer_1" xmlns="http://www.w3.org/2000/svg" xmlns:xlink="http://www.w3.org/1999/xlink" x="0px" y="0px"
	 width="28px" height="28px" viewBox="0 0 28 28" style="enable-background:new 0 0 28 28;" xml:space="preserve">
<style type="text/css">
	.st0{fill:#82919B;}
	.st1{fill:#35414C;}
</style>
<g id="Group_2" transform="translate(1977 66)">
	<circle id="Ellipse_2" class="st0" cx="-1963" cy="-52" r="14"/>
	<path id="SocialTwitter2_32_1x" class="st1" d="M-1956.7-54.7v0.4c0,5.1-4.1,9.2-9.2,9.3h-0.1c-1.8,0-3.5-0.5-5-1.5
		c0.3,0,0.5,0.1,0.8,0c1.5,0,2.9-0.5,4-1.4c-1.4,0-2.6-0.9-3-2.3c0.2,0,0.4,0.1,0.6,0c0.3,0,0.6,0,0.8-0.1c-1.5-0.3-2.6-1.6-2.6-3.2
		l0,0c0.5,0.3,1,0.4,1.5,0.4c-1.5-1-1.9-2.9-1-4.4c1.7,2,4.1,3.3,6.7,3.4c-0.3-1.8,0.8-3.5,2.5-3.9c1.1-0.3,2.3,0.1,3.1,0.9
		c0.7-0.1,1.4-0.4,2.1-0.8c-0.2,0.8-0.8,1.4-1.4,1.8c0.7-0.1,1.3-0.2,1.9-0.5C-1955.4-55.8-1956-55.2-1956.7-54.7z"/>
</g>
</svg>
